<?xml version="1.0" standalone="no"?>
<!DOCTYPE svg PUBLIC "-//W3C//DTD SVG 20010904//EN"
 "http://www.w3.org/TR/2001/REC-SVG-20010904/DTD/svg10.dtd">
<svg version="1.0" xmlns="http://www.w3.org/2000/svg"
 width="616.000000pt" height="616.000000pt" viewBox="0 0 616.000000 616.000000"
 preserveAspectRatio="xMidYMid meet">
<metadata>
Created by potrace 1.11, written by Peter Selinger 2001-2013
</metadata>
<g transform="translate(0.000000,616.000000) scale(0.100000,-0.100000)"
fill="#000000" stroke="none">
<path d="M815 3951 c-144 -44 -267 -143 -323 -262 -30 -62 -39 -105 -51 -236
0 -7 -8 -13 -17 -13 -8 0 -48 -15 -87 -34 -168 -78 -267 -256 -254 -456 13
-185 117 -320 297 -380 77 -26 214 -25 303 1 214 64 375 253 476 561 13 37 27
70 32 74 12 7 70 -41 85 -70 15 -27 28 -129 39 -291 9 -129 15 -158 40 -191
25 -33 91 -88 134 -112 67 -38 91 -50 141 -71 30 -12 64 -26 75 -31 54 -23
251 -75 325 -85 25 -3 68 -10 95 -15 28 -5 77 -12 110 -16 63 -7 75 -8 195
-18 41 -3 98 -8 125 -11 518 -47 1480 -47 1965 0 61 6 141 13 225 20 128 11
425 49 540 70 44 7 96 16 115 19 19 3 80 15 135 26 55 11 111 23 126 25 14 3
68 17 120 33 147 44 280 128 295 186 8 35 -20 92 -56 111 l-31 16 20 -40 c25
-49 17 -77 -32 -115 -29 -22 -171 -80 -224 -91 -133 -27 -274 -55 -298 -59
-16 -2 -73 -11 -125 -20 -52 -8 -115 -18 -140 -21 -25 -3 -56 -8 -70 -10 -14
-2 -47 -6 -75 -10 -27 -3 -66 -8 -85 -10 -19 -2 -66 -7 -105 -11 -38 -3 -86
-7 -105 -9 -19 -2 -73 -6 -120 -9 -47 -3 -105 -8 -130 -11 -272 -29 -1214 -35
-1555 -11 -230 17 -240 18 -375 30 -120 12 -272 30 -341 42 -15 2 -47 6 -70 9
-224 28 -389 78 -534 160 -144 83 -153 99 -155 315 -2 74 -3 144 -3 155 -1 11
-20 39 -43 62 -31 31 -59 47 -109 62 -37 12 -78 21 -90 21 -13 0 -27 5 -30 10
-4 6 39 10 122 11 70 1 131 1 135 0 4 0 32 8 62 20 71 26 108 69 164 189 125
268 129 275 183 328 96 95 175 117 298 83 53 -15 65 -7 20 12 -23 10 -64 14
-124 13 -76 -1 -99 -5 -147 -29 -64 -31 -139 -107 -241 -243 -37 -49 -77 -102
-89 -119 -13 -16 -52 -60 -88 -97 -58 -58 -75 -69 -136 -87 -79 -24 -142 -33
-149 -22 -8 14 42 159 80 228 36 67 84 126 117 144 11 6 31 4 60 -6 63 -22
141 -29 166 -16 15 8 22 21 22 40 0 23 -7 31 -32 42 -38 16 -96 13 -143 -7
l-36 -15 -95 71 c-152 113 -230 159 -292 174 -83 19 -169 18 -237 -3z m215
-92 c96 -17 291 -95 348 -140 l23 -17 -54 -36 c-65 -43 -189 -162 -241 -230
-36 -48 -92 -158 -101 -200 -2 -12 -22 -75 -44 -141 -100 -305 -190 -445 -316
-496 -48 -19 -66 -22 -140 -23 -162 -1 -331 118 -381 269 -18 51 -23 161 -12
231 15 89 66 187 127 242 29 26 176 102 197 102 8 0 25 -17 38 -37 33 -53 63
-78 121 -104 42 -19 60 -21 127 -16 43 4 87 11 97 16 14 8 23 6 36 -9 27 -30
34 -207 10 -275 -22 -65 -96 -165 -122 -165 -7 0 -13 -4 -13 -8 0 -19 -90 -49
-167 -57 -108 -11 -170 42 -177 151 -6 107 31 190 106 236 40 25 56 48 33 48
-8 0 -41 -26 -72 -57 -94 -94 -123 -222 -71 -314 39 -70 65 -83 166 -84 81 0
94 3 155 34 76 38 135 98 174 175 22 43 27 65 28 146 1 56 -5 116 -13 147
l-15 52 79 75 c44 41 72 75 64 75 -8 0 -41 -24 -73 -54 -81 -76 -85 -77 -116
-48 -74 71 -183 113 -292 113 l-71 0 6 62 c13 139 111 255 269 318 101 40 151
43 287 19z m-324 -458 c66 -31 114 -67 114 -87 0 -24 -128 -39 -185 -22 -71
22 -145 82 -145 119 0 23 13 26 90 22 45 -2 84 -12 126 -32z"/>
<path d="M4062 3215 c-36 -26 -54 -73 -59 -159 -3 -46 -12 -91 -20 -104 -33
-53 -144 -160 -172 -165 -19 -4 -37 -19 -50 -41 -28 -44 -70 -80 -132 -111
-54 -28 -131 -48 -152 -39 -26 10 -38 51 -27 98 17 78 28 96 54 96 70 0 256
81 302 132 65 71 66 158 2 202 -51 36 -161 11 -268 -60 -77 -51 -94 -67 -225
-210 -163 -177 -235 -243 -273 -250 -18 -4 -38 -2 -44 4 -12 12 2 40 110 212
130 206 142 242 100 295 -20 25 -25 27 -74 22 -45 -5 -156 -54 -174 -76 -11
-15 -70 -52 -70 -44 0 4 12 31 25 58 33 66 32 82 0 57 -19 -15 -35 -19 -65
-15 -48 7 -59 -2 -99 -70 -39 -70 -89 -116 -190 -177 -46 -27 -85 -49 -87 -48
-1 2 4 28 12 58 26 97 9 185 -45 234 -27 25 -108 32 -169 16 -181 -49 -316
-203 -329 -375 -5 -67 -3 -78 20 -118 45 -77 113 -92 228 -52 64 23 107 52
190 131 42 40 102 85 135 102 32 16 83 46 112 65 28 20 52 34 52 32 0 -2 -39
-79 -86 -170 -47 -91 -84 -169 -81 -171 3 -3 14 -1 24 4 10 5 37 8 60 7 53 -2
63 8 139 140 73 129 143 223 207 281 58 52 122 88 143 80 16 -6 19 -36 4 -36
-5 0 -10 -6 -10 -12 0 -7 -25 -51 -55 -98 -94 -146 -128 -211 -132 -252 -12
-102 67 -156 165 -111 21 9 95 75 167 147 71 72 125 122 121 111 -4 -11 -10
-47 -12 -80 -4 -49 0 -68 19 -105 54 -104 165 -111 322 -22 l70 39 10 -30 c15
-44 55 -70 118 -75 66 -5 111 8 178 55 29 19 79 44 113 56 68 23 92 36 154 85
25 20 42 28 43 20 0 -7 1 -32 1 -54 1 -128 118 -189 259 -135 110 42 201 117
414 343 47 49 122 104 132 95 2 -2 -29 -69 -68 -148 -41 -82 -74 -162 -77
-185 -6 -52 21 -112 57 -125 69 -27 201 27 302 124 77 73 229 272 229 299 0
17 -16 6 -39 -27 -13 -19 -32 -45 -43 -57 -10 -13 -38 -45 -61 -73 -73 -88
-180 -187 -221 -206 -67 -31 -113 -22 -111 21 1 15 54 119 101 200 49 82 114
210 114 224 0 25 -41 66 -66 66 -22 0 -74 -30 -153 -87 l-25 -18 17 25 c14 22
22 71 18 108 -2 24 -58 13 -90 -19 -41 -41 -54 -90 -39 -147 12 -44 -7 -75
-119 -183 -142 -138 -251 -209 -343 -223 -42 -6 -55 1 -69 36 -10 28 6 119 25
138 5 5 49 21 97 35 181 52 273 125 284 226 4 34 1 43 -30 74 -29 29 -42 35
-79 35 -125 0 -283 -102 -375 -242 -66 -101 -187 -195 -261 -203 -21 -2 -23 0
-17 24 18 74 17 149 -5 232 -28 103 -28 100 1 176 19 49 22 67 13 80 -15 24
-44 27 -72 8z m-1688 -111 c12 -11 15 -29 12 -65 -6 -65 -42 -172 -65 -193
-18 -16 -20 -16 -45 7 l-26 24 25 11 c27 12 34 45 13 59 -40 24 -78 4 -78 -41
0 -26 8 -41 35 -65 20 -17 40 -31 46 -31 19 0 -36 -84 -96 -146 -68 -70 -116
-89 -140 -57 -19 25 -18 43 6 115 51 151 159 324 234 372 45 30 58 32 79 10z
m1371 3 c39 -30 -10 -125 -104 -198 -56 -44 -131 -83 -131 -69 0 41 122 222
174 258 38 25 38 25 61 9z m1043 -25 c8 -54 -91 -168 -196 -225 -44 -24 -52
-26 -52 -12 0 31 100 186 151 235 44 42 91 43 97 2z m-762 -212 c0 -56 -35
-150 -56 -150 -13 0 -71 39 -82 54 -9 14 2 32 62 99 29 32 57 56 64 54 6 -2
11 -27 12 -57z"/>
</g>
</svg>
